  <svg 
    xmlns="http://www.w3.org/2000/svg" 
    viewBox="0 0 800 600" 
    style={{ width: '100%', height: 'auto' }}
  >
    <defs>
      <linearGradient id="a" x1="410.635" x2="410.635" y1="-1.336" y2="600.908">
        <stop offset="0" stopColor="#70b" />
        <stop offset="1" stopColor="#00008b" />
      </linearGradient>
      <linearGradient id="d" x1="641.158" x2="644.282" y1="489.084" y2="489.084">
        <stop offset=".041" stopColor="#100060" />
        <stop offset="1" stopColor="#090e96" />
      </linearGradient>
      <linearGradient id="e" x1="407.438" x2="538.178" y1="318.561" y2="318.561">
        <stop offset="0" stopColor="#a1baff" />
        <stop offset=".433" stopColor="#fff" />
      </linearGradient>
      <linearGradient id="f" x1="487.791" x2="519.543" y1="359.186" y2="359.186">
        <stop offset="0" stopColor="#a1baff" />
        <stop offset=".433" stopColor="#fff" />
      </linearGradient>
      <linearGradient id="g" x1="242.597" x2="394.824" y1="314.881" y2="314.881">
        <stop offset="0" stopColor="#311341" />
        <stop offset=".998" stopColor="#0090ff" />
      </linearGradient>
      <linearGradient id="h" x1="260.194" x2="287.175" y1="196.16" y2="267.796">
        <stop offset="0" stopColor="#a1baff" />
        <stop offset=".433" stopColor="#fff" />
      </linearGradient>
      <linearGradient id="i" x1="340.829" x2="345.481" y1="474.88" y2="581.868">
        <stop offset=".041" stopColor="#100022" />
        <stop offset="1" stopColor="#090e96" />
      </linearGradient>
      <linearGradient id="j" x1="334.145" x2="458.197" y1="446.239" y2="587.658">
        <stop offset=".041" stopColor="#10003b" />
        <stop offset="1" stopColor="#090e96" />
      </linearGradient>
      <linearGradient id="k" x1="211.814" x2="337.41" y1="363.16" y2="363.16">
        <stop offset="0" stopColor="#7633ff" />
        <stop offset="1" stopColor="#0090ff" />
      </linearGradient>
      <linearGradient id="l" x1="299.975" x2="445.298" y1="304.053" y2="355.219">
        <stop offset="0" stopColor="#7633ff" />
        <stop offset=".61" stopColor="#0090ff" />
      </linearGradient>
    </defs>
    <path fill="#fff" d="M690.59,464.13h80.29c4.36-2.25,7.35-6.82,7.35-12.09c0-6.82-5.01-12.47-11.53-13.44c0.01-0.22,0.02-0.44,0.02-0.67c0-7.98-6.6-14.45-14.74-14.45c-0.85,0-1.68,0.07-2.5,0.21c-3.51-6.09-10.36-10.22-18.23-10.22c-9.17,0-16.95,5.61-19.68,13.39c-0.86-0.17-1.75-0.27-2.65-0.27c-7.82,0-14.16,6.73-14.16,15.03c0,0.93,0.08,1.85,0.23,2.73c-5.92,0.38-10.6,4.91-10.6,10.45C684.39,458.87,686.91,464.13,690.59,464.13z" />
  </svg>